<svg width="278" height="278" viewBox="0 0 278 278" fill="none" xmlns="http://www.w3.org/2000/svg">
<rect width="278" height="278" rx="20" fill="white"/>
<path fill-rule="evenodd" clip-rule="evenodd" d="M118.276 41.8816C80.3389 49.8434 51.5068 77.4731 41.8884 115.081C40.9874 118.603 39.9773 123.902 39.6421 126.859L39.0346 132.234H55.4974C72.8391 132.234 76.5096 132.837 76.5096 135.686C76.5096 140.266 76.7269 140.215 57.2161 140.215H39L39.5374 147.532C40.536 161.112 45.5899 175.938 54.0803 190.2C59.818 199.837 74.4088 214.652 84.7677 221.36C97.732 229.754 114.425 235.56 128.588 236.602L135.882 237.139L136.126 222.25C136.34 209.196 136.561 207.241 137.922 206.383C139.052 205.67 139.895 205.67 141.025 206.383C142.385 207.24 142.608 209.19 142.82 222.12L143.063 236.878H146.955C152.441 236.878 162.86 234.76 171.063 231.976C207.884 219.481 234.431 185.672 238.4 146.22L239 140.252L220.497 140.012L201.994 139.772L201.696 137.155C201.18 132.62 202.712 132.234 221.23 132.234H237.91V129.228C237.91 127.575 237.288 122.945 236.529 118.941C229.106 79.8116 197.791 48.9176 157.875 41.346C147.536 39.3852 144.24 39.536 143.58 42.0004C143.286 43.0983 143.039 63.2503 143.033 86.7846C143.023 119.066 143.278 129.573 144.066 129.573C144.982 129.573 153.704 121.231 180.514 94.7145C187.713 87.5934 190.081 86.5957 192.108 89.8308C192.792 90.9216 192.709 91.8785 191.804 93.3781C191.121 94.507 181.362 104.41 170.117 115.384C144.712 140.179 145.971 138.662 148.054 141.945C149.754 144.625 165.204 161.871 183.639 181.669C192.871 191.584 194.532 193.795 194.294 195.858C194.077 197.74 193.482 198.363 191.703 198.57C189.703 198.802 187.066 196.295 172.113 179.946C162.609 169.556 152.076 157.974 148.705 154.208C144.481 149.488 141.944 147.353 140.538 147.336C135.835 147.276 131.492 143.044 131.492 138.52C131.492 137.633 132.39 135.766 133.488 134.371L135.483 131.835L135.728 85.92L135.972 40.0051L131.294 40.0681C128.72 40.1027 122.863 40.9185 118.276 41.8816Z" fill="black"/>
</svg>
